<?xml version="1.0" encoding="iso-8859-1"?>
<!-- Uploaded to: SVG Repo, www.svgrepo.com, Generator: SVG Repo Mixer Tools -->
<svg version="1.1" id="Layer_1" xmlns="http://www.w3.org/2000/svg" xmlns:xlink="http://www.w3.org/1999/xlink" 
	 viewBox="0 0 511.899 511.899" xml:space="preserve">
<g>
	<rect x="186.13" y="143.14" style="fill:#8CC153;" width="21.337" height="66.776"/>
	<rect x="443.55" y="27.363" style="fill:#8CC153;" width="21.337" height="57.51"/>
	<rect x="304.83" y="74.04" style="fill:#8CC153;" width="21.338" height="57.51"/>
</g>
<g>
	<path style="fill:#E6E9ED;" d="M444.303,152.403v35.677l0,0c0,5.889,4.78,10.669,10.669,10.669s10.668-4.78,10.668-10.669l0,0
		v-35.677H444.303z"/>
	<path style="fill:#E6E9ED;" d="M305.595,234.754c0,5.889,4.765,10.668,10.669,10.668c5.889,0,10.669-4.779,10.669-10.668v-35.692
		h-21.338V234.754z"/>
	<path style="fill:#E6E9ED;" d="M186.881,277.429v35.691c0,5.889,4.78,10.669,10.668,10.669c5.904,0,10.668-4.78,10.668-10.669
		v-35.691H186.881z"/>
</g>
<g>
	<path style="fill:#EC87C0;" d="M503.612,81.659c-6.201-7.122-15.136-10.902-25.852-10.902c-10.527,0-17.885,5.732-22.914,12.277
		c-5.124-6.529-12.543-12.277-23.04-12.277c-10.388,0-19.447,3.874-25.508,10.887c-6.936,8.014-9.575,19.197-7.654,32.365
		c1.78,12.169,8.013,24.571,17.542,34.911c10.105,10.981,23.133,18.542,36.691,21.26l2.109,0.438l2.108-0.438
		c13.558-2.733,26.601-10.278,36.724-21.244c9.59-10.371,15.807-22.805,17.51-34.989C513.657,97.28,508.424,87.189,503.612,81.659z"
		/>
	<path style="fill:#EC87C0;" d="M339.054,117.429c-10.528,0-17.885,5.733-22.915,12.277c-5.124-6.528-12.543-12.277-23.056-12.277
		c-10.371,0-19.432,3.874-25.508,10.888c-6.92,8.013-9.56,19.197-7.639,32.35c1.781,12.184,7.998,24.586,17.526,34.927
		c10.122,10.98,23.149,18.525,36.708,21.259l2.093,0.422l2.108-0.422c13.574-2.733,26.617-10.278,36.739-21.243
		c9.575-10.388,15.792-22.806,17.511-35.005c2.326-16.651-2.906-26.742-7.717-32.271
		C358.704,121.21,349.753,117.429,339.054,117.429z"/>
	<path style="fill:#EC87C0;" d="M246.191,206.699c-6.201-7.138-15.136-10.902-25.852-10.902c-10.528,0-17.87,5.732-22.915,12.277
		c-5.124-6.529-12.543-12.277-23.04-12.277c-10.388,0-19.447,3.874-25.508,10.887c-6.919,7.998-9.56,19.197-7.638,32.35
		c1.765,12.185,7.998,24.571,17.526,34.927c10.106,10.981,23.149,18.526,36.692,21.26l2.109,0.422l2.109-0.422
		c13.558-2.733,26.617-10.278,36.739-21.244c9.575-10.387,15.792-22.805,17.495-35.005
		C256.25,222.304,251.002,212.229,246.191,206.699z"/>
</g>
<g>
	<path style="fill:#8CC153;" d="M25.961,236.456c2.5,2.187,15.808,13.184,32.553,15.495c1.968,0.266,4.952,0.703,8.123,1.172
		c15.683,2.312,20.744,2.983,24.024,2.983c0.547,0,1.078-0.016,1.593-0.047h5.139l0,0h4.108l5.264-6.748
		c0.796-0.781,1.421-1.483,1.875-1.983c0.968-1.094,2.218-2.577,3.811-4.499c2.75-3.312,6.107-7.482,9.076-11.168
		c2.015-2.5,3.92-4.858,5.186-6.389c10.731-13.059,13.043-30.163,13.402-33.475l2.749-25.664l-13.574,1.125
		c-0.5-2.671-0.969-4.468-1.125-4.999l-8.481-30.818l-19.275,15.026l-14.214-26.273L75.04,133.909
		c-2.656-2.718-4.593-4.389-5.139-4.857l-29.944-25.133l-4.952,38.769c-0.094,0.719-0.391,3.28-0.5,7.092l-17.526-2.499
		l7.388,28.929L0,178.255l14.683,28.397c0.266,0.5,1.125,2.125,2.578,4.421l-10.747,8.388L25.961,236.456z"/>
	<path style="fill:#8CC153;" d="M165.856,421.149l-13.684-14.464c5.983-4.077,9.747-7.435,10.591-8.2l28.804-26.445l-37.817-9.935
		c-0.781-0.203-5.779-1.468-13.23-2.312l5.357-19.229l-31.693,3.842c-0.453,0.047-1.484,0.188-2.983,0.422l1.312-28.35
		L82.444,327.35c-0.843,0.312-4.374,1.641-9.169,4.107l-7.748-13.136l-19.369,17.073c-2.859,2.529-17.354,16.025-22.431,34.613
		c-0.641,2.359-1.656,5.905-2.718,9.67c-1.562,5.545-3.343,11.824-4.702,16.854c-0.781,2.906-1.343,5.139-1.75,6.811
		c-0.203,0.906-0.484,2.094-0.687,3.515l-1.234,4.39l1.125,3.529l0.297,5.296l4.249,4.327c0.797,1.094,1.562,1.952,2.14,2.624
		c1.125,1.296,2.671,2.999,4.717,5.201c3.562,3.827,8.06,8.544,12.027,12.699c2.703,2.827,5.264,5.499,6.92,7.279
		c13.184,14.058,32.318,19.213,36.02,20.118l25.086,6.046l0.734-15.229c5.483-0.078,9.263-0.562,10.013-0.672l31.662-4.421
		l-14.417-24.461c1.484-0.5,2.468-0.875,2.843-1.016L165.856,421.149z"/>
</g>
<path style="fill:#A0D468;" d="M511.891,10.697c0-5.904-4.779-10.669-10.669-10.669c-0.515,0-1.03,0.047-1.53,0.109l0,0
	c-1.25,0.172-31.068,4.593-76.18,17.916c-41.551,12.263-104.375,34.725-167.731,72.15c-71.494,42.222-129.07,94.455-171.135,155.249
	C31.975,321.571,3.733,411.2,0.672,511.872h21.353c3.03-96.08,29.928-181.522,79.944-253.953
	c40.207-58.217,95.408-108.343,164.075-149.002c61.42-36.349,122.463-58.248,162.842-70.213
	c43.893-12.996,73.587-17.417,73.883-17.448V21.24C507.924,20.491,511.891,16.054,511.891,10.697z"/>
</svg>